<?xml version="1.0" encoding="UTF-8" standalone="no"?>
<svg
   xmlns:dc="http://purl.org/dc/elements/1.1/"
   xmlns:cc="http://creativecommons.org/ns#"
   xmlns:rdf="http://www.w3.org/1999/02/22-rdf-syntax-ns#"
   xmlns:svg="http://www.w3.org/2000/svg"
   xmlns="http://www.w3.org/2000/svg"
   version="1.1"
   id="svg3395"
   viewBox="0 0 46.000001 38"
   height="10.724444mm"
   width="12.982223mm">
  <defs
     id="defs3397" />
  <metadata
     id="metadata3400">
    <rdf:RDF>
      <cc:Work
         rdf:about="">
        <dc:format>image/svg+xml</dc:format>
        <dc:type
           rdf:resource="http://purl.org/dc/dcmitype/StillImage" />
        <dc:title></dc:title>
      </cc:Work>
    </rdf:RDF>
  </metadata>
  <g
     transform="translate(-142.71429,-456.21935)"
     id="layer1">
    <path
       style="clip-rule:evenodd;fill-rule:evenodd"
       d="m 184.71429,494.21935 -38,0 c -2.209,0 -4,-1.791 -4,-4 l 0,-30 c 0,-2.209 1.791,-4 4,-4 l 38,0 c 2.209,0 4,1.791 4,4 l 0,30 c 0,2.209 -1.791,4 -4,4 z m 2,-34 c 0,-1.104 -0.896,-2 -2,-2 l -38,0 c -1.104,0 -2,0.896 -2,2 l 0,6 42,0 0,-6 z m 0,8 -42,0 0,22 c 0,1.104 0.896,2 2,2 l 38,0 c 1.104,0 2,-0.896 2,-2 l 0,-22 z m -4,14 -2,0 c -0.552,0 -1,-0.447 -1,-1 l 0,-2 c 0,-0.552 0.448,-1 1,-1 l 2,0 c 0.553,0 1,0.448 1,1 l 0,2 c 0,0.553 -0.447,1 -1,1 z m 0,-7 -2,0 c -0.552,0 -1,-0.447 -1,-1 l 0,-2 c 0,-0.553 0.448,-1 1,-1 l 2,0 c 0.553,0 1,0.447 1,1 l 0,2 c 0,0.553 -0.447,1 -1,1 z m -8,7 -2,0 c -0.552,0 -1,-0.447 -1,-1 l 0,-2 c 0,-0.552 0.448,-1 1,-1 l 2,0 c 0.553,0 1,0.448 1,1 l 0,2 c 0,0.553 -0.447,1 -1,1 z m 0,-7 -2,0 c -0.552,0 -1,-0.447 -1,-1 l 0,-2 c 0,-0.553 0.448,-1 1,-1 l 2,0 c 0.553,0 1,0.447 1,1 l 0,2 c 0,0.553 -0.447,1 -1,1 z m -8,7 -2,0 c -0.553,0 -1,-0.447 -1,-1 l 0,-2 c 0,-0.552 0.447,-1 1,-1 l 2,0 c 0.553,0 1,0.448 1,1 l 0,2 c 0,0.553 -0.447,1 -1,1 z m 0,-7 -2,0 c -0.553,0 -1,-0.447 -1,-1 l 0,-2 c 0,-0.553 0.447,-1 1,-1 l 2,0 c 0.553,0 1,0.447 1,1 l 0,2 c 0,0.553 -0.447,1 -1,1 z m -8,14 -2,0 c -0.553,0 -1,-0.447 -1,-1 l 0,-2 c 0,-0.553 0.447,-1 1,-1 l 2,0 c 0.553,0 1,0.447 1,1 l 0,2 c 0,0.553 -0.447,1 -1,1 z m 0,-7 -2,0 c -0.553,0 -1,-0.447 -1,-1 l 0,-2 c 0,-0.552 0.447,-1 1,-1 l 2,0 c 0.553,0 1,0.448 1,1 l 0,2 c 0,0.553 -0.447,1 -1,1 z m 0,-7 -2,0 c -0.553,0 -1,-0.447 -1,-1 l 0,-2 c 0,-0.553 0.447,-1 1,-1 l 2,0 c 0.553,0 1,0.447 1,1 l 0,2 c 0,0.553 -0.447,1 -1,1 z m -8,14 -2,0 c -0.553,0 -1,-0.447 -1,-1 l 0,-2 c 0,-0.553 0.447,-1 1,-1 l 2,0 c 0.553,0 1,0.447 1,1 l 0,2 c 0,0.553 -0.447,1 -1,1 z m 0,-7 -2,0 c -0.553,0 -1,-0.447 -1,-1 l 0,-2 c 0,-0.552 0.447,-1 1,-1 l 2,0 c 0.553,0 1,0.448 1,1 l 0,2 c 0,0.553 -0.447,1 -1,1 z m 14,3 2,0 c 0.553,0 1,0.447 1,1 l 0,2 c 0,0.553 -0.447,1 -1,1 l -2,0 c -0.553,0 -1,-0.447 -1,-1 l 0,-2 c 0,-0.553 0.447,-1 1,-1 z"
       id="path3405" />
  </g>
</svg>
