<?xml version="1.0" encoding="UTF-8" standalone="no"?>
<svg
   xmlns:dc="http://purl.org/dc/elements/1.1/"
   xmlns:cc="http://creativecommons.org/ns#"
   xmlns:rdf="http://www.w3.org/1999/02/22-rdf-syntax-ns#"
   xmlns:svg="http://www.w3.org/2000/svg"
   xmlns="http://www.w3.org/2000/svg"
   version="1.1"
   id="svg3414"
   viewBox="0 0 97.099339 68.712697"
   height="19.39225mm"
   width="27.403591mm">
  <defs
     id="defs3416" />
  <metadata
     id="metadata3419">
    <rdf:RDF>
      <cc:Work
         rdf:about="">
        <dc:format>image/svg+xml</dc:format>
        <dc:type
           rdf:resource="http://purl.org/dc/dcmitype/StillImage" />
        <dc:title></dc:title>
      </cc:Work>
    </rdf:RDF>
  </metadata>
  <g
     transform="translate(-62.878901,-412.29157)"
     id="layer1">
    <g
       transform="translate(61.428571,396.62507)"
       id="g3438">
      <path
         d="m 17.1,57.2 1,-0.9 -2.3,-4.2 12.8,-25.8 c 0,0 6.7,-5.3 19.2,-3.2 0.3,0.1 1.1,0.3 2.1,0.6 l 21.7,-0.9 1.4,3 -5.8,0.3 -10.5,0.4 c 3.3,1.5 6.3,3.4 7.3,5.3 0,0 1.6,10.6 3.5,13 0,0 -6.4,8.7 -12.2,-6.6 0,0 -2.1,-3 -4.8,-4.4 L 19.1,59.6 c -1.4,1.1 -1.6,3.2 -0.5,4.5 1.1,1.4 3.2,1.6 4.5,0.5 l 1.6,-1.3 c 0.1,-0.1 0.3,-0.2 0.4,-0.4 l 0,0 16.7,-12.7 0,0 c 0.3,-0.2 0.6,-0.3 0.9,-0.3 0.9,0 1.6,0.7 1.6,1.6 0,0.5 -0.2,0.9 -0.6,1.2 l 0,0 -15.6,11.9 -1.4,1.1 c -1.1,1.2 -1.2,3 -0.2,4.3 1,1.2 3.6,1.3 5.3,0.1 0.3,-0.3 0.5,-0.6 0.9,-0.8 L 46.7,58 c 0.3,-0.4 0.7,-0.6 1.2,-0.6 0.9,0 1.6,0.7 1.6,1.6 0,0.5 -0.2,0.9 -0.5,1.2 l 0,0 -14.3,11.4 c -1.4,1.1 -1.6,3.2 -0.5,4.5 0.5,0.7 1.3,1.1 2.2,1.2 0.9,0.1 1.7,-0.2 2.4,-0.7 l 12,-9.7 0,0 c 0.3,-0.2 0.6,-0.3 1,-0.3 0.9,0 1.6,0.7 1.6,1.6 0,0.5 -0.2,0.9 -0.6,1.2 l -7.5,6.3 c -0.5,0.4 -0.8,1 -0.9,1.6 -0.1,0.6 0.1,1.3 0.5,1.7 0.4,0.5 1,0.8 1.6,0.9 0.6,0.1 1.3,-0.1 1.7,-0.5 l 0.7,-0.5 c -0.1,-1.3 0.5,-2.7 1.6,-3.6 0.9,-0.7 2.1,-1 3.2,-0.8 l 1.4,-1 c -0.2,-1.5 0.4,-3.2 1.7,-4.2 1.4,-1.1 3.2,-1.2 4.7,-0.5 L 62,68.4 c -0.4,-1.7 0.2,-3.5 1.6,-4.6 l 0.1,-0.1 c 1.6,-1.2 3.7,-1.2 5.3,-0.2 l 0.1,0 -0.1,-0.2 c -1.7,-2.1 -1.3,-5.2 0.8,-6.9 1.8,-1.4 4.4,-1.3 6.1,0.1 l 5.1,-6.6 0,0 2.1,-2.7 1.5,3.1 -6.7,8.7 2.5,3.2 c 1.7,2.1 1.3,5.2 -0.8,6.9 -1.8,1.4 -4.4,1.3 -6.1,-0.1 1.1,1.9 0.7,4.4 -1.1,5.8 l -0.1,0.1 c -1.8,1.4 -4.4,1.2 -6,-0.4 0.6,1.8 0.1,3.9 -1.5,5.1 -2,1.5 -4.8,1.2 -6.3,-0.8 l -0.3,-0.4 c 0.8,1.7 0.3,3.9 -1.2,5.1 -1.8,1.4 -4.5,1.1 -5.9,-0.7 l -0.8,-1 -0.1,0 c -1,0.8 -2.2,1.2 -3.4,1.2 -0.2,0 -0.4,0 -0.6,0 -1.5,-0.2 -2.8,-0.9 -3.7,-2 -0.6,-0.7 -0.9,-1.5 -1.1,-2.4 l -0.6,0.5 c -1.1,0.9 -2.5,1.4 -4,1.4 -0.2,0 -0.5,0 -0.7,0 -1.7,-0.2 -3.2,-1 -4.3,-2.3 -1,-1.2 -1.5,-2.7 -1.4,-4.2 -0.4,0 -0.9,0 -1.4,0 -1.9,0 -3.7,-0.6 -4.9,-2.1 -0.9,-1.1 -1.3,-2.3 -1.4,-3.7 -0.5,0.1 -1.1,0.2 -1.7,0.2 -0.2,0 -0.5,0 -0.7,0 -1.7,-0.2 -3.2,-1 -4.3,-2.3 -2,-2.7 -1.6,-6.7 1.1,-8.9 z M 1.7,44.6 13.5,20.1 c 0.6,-1.3 2.2,-1.9 3.5,-1.2 l 6.7,3.2 c 1.3,0.6 1.9,2.2 1.2,3.5 L 13.2,50.1 C 12.6,51.4 11,52 9.7,51.3 L 3,48.1 C 1.6,47.5 1.1,45.9 1.7,44.6 Z m 4.9,0 c 0,1.2 1,2.2 2.2,2.2 1.2,0 2.2,-1 2.2,-2.2 0,-1.2 -1,-2.2 -2.2,-2.2 -1.2,0 -2.2,1 -2.2,2.2 z M 86.7,17.2 98.3,41.8 c 0.6,1.3 0.1,2.9 -1.3,3.5 l -6.7,3.2 C 89,49.1 87.4,48.6 86.8,47.2 L 75.2,22.6 c -0.6,-1.3 -0.1,-2.9 1.3,-3.5 l 6.7,-3.2 c 1.3,-0.6 2.9,0 3.5,1.3 z M 89,41.8 c 0,1.2 1,2.2 2.2,2.2 1.2,0 2.2,-1 2.2,-2.2 0,-1.2 -1,-2.2 -2.2,-2.2 -1.2,0 -2.2,1 -2.2,2.2 z"
         id="path3425" />
      <text
         style="font-size:5px;font-family:Arial-BoldMT;display:none;enable-background:new"
         transform="translate(0,115)"
         class="st0 st1 st2"
         id="text3427">Created by Gregor Črešnar</text>
      <text
         style="font-size:5px;font-family:Arial-BoldMT;display:none;enable-background:new"
         transform="translate(0,120)"
         class="st0 st1 st2"
         id="text3429">from the Noun Project</text>
    </g>
  </g>
  <style
     type="text/css"
     id="style3423">
	.st0{display:none;enable-background:new    ;}
	.st1{font-family:'Arial-BoldMT';}
	.st2{font-size:5px;}
</style>
</svg>
