<svg id="Landscape_Logo" data-name="Landscape Logo" xmlns="http://www.w3.org/2000/svg" viewBox="0 0 169.79 120.04"><defs><style>.cls-1{fill:none;}.cls-2{fill:#fff;}</style></defs><title>[AS] Logo Portrait Invert</title><path class="cls-1" d="M254.14,304.66a1.21,1.21,0,0,0-.72-0.21,2,2,0,0,0-1.28.47,3.33,3.33,0,0,0-.94,1.4,5.06,5.06,0,0,0-.36,1.86,2.25,2.25,0,0,0,.29,1.27,1,1,0,0,0,.86.41,1.75,1.75,0,0,0,1-.35,3.6,3.6,0,0,0,.91-0.95,4.65,4.65,0,0,0,.61-1.31,4.45,4.45,0,0,0,.21-1.21,2.08,2.08,0,0,0-.15-0.81A1.29,1.29,0,0,0,254.14,304.66Z" transform="translate(-165.26 -190.33)"/><path class="cls-1" d="M242.12,305.55a1,1,0,0,0-.32-0.8,1.31,1.31,0,0,0-.92-0.29,2.29,2.29,0,0,0-1.65.69,3.4,3.4,0,0,0-.93,1.83h1.37a3.63,3.63,0,0,0,1.83-.37A1.18,1.18,0,0,0,242.12,305.55Z" transform="translate(-165.26 -190.33)"/><path class="cls-1" d="M257.3,307.06q0,0.41,0,.68a2.81,2.81,0,0,0,.37,1.62,1.33,1.33,0,0,0,1.17.52,1.78,1.78,0,0,0,1.15-.39,2.45,2.45,0,0,0,.75-1.09,4.6,4.6,0,0,0,.26-1.6,2.08,2.08,0,0,0-.36-1.33,1.2,1.2,0,0,0-1-.43,2.13,2.13,0,0,0-1.12.33,4.53,4.53,0,0,0-1.14,1.09Q257.34,306.65,257.3,307.06Z" transform="translate(-165.26 -190.33)"/><path class="cls-1" d="M278.16,304.46a1.92,1.92,0,0,0-1.39.66,3.85,3.85,0,0,0-.93,1.76h0.28q2.95,0,2.95-1.54a0.86,0.86,0,0,0-.25-0.63A0.9,0.9,0,0,0,278.16,304.46Z" transform="translate(-165.26 -190.33)"/><path class="cls-1" d="M208,304.43a2,2,0,0,0-1.27.45,3,3,0,0,0-.9,1.28,4.69,4.69,0,0,0-.34,1.77q0,2,1.61,2a2,2,0,0,0,1.29-.44,3,3,0,0,0,.9-1.3,5.16,5.16,0,0,0,.33-1.88,2,2,0,0,0-.42-1.35A1.51,1.51,0,0,0,208,304.43Z" transform="translate(-165.26 -190.33)"/><path class="cls-1" d="M293.49,304.43a2,2,0,0,0-1.27.45,3,3,0,0,0-.9,1.28,4.69,4.69,0,0,0-.34,1.77q0,2,1.61,2a2,2,0,0,0,1.29-.44,3,3,0,0,0,.9-1.3,5.16,5.16,0,0,0,.33-1.88,2,2,0,0,0-.42-1.35A1.51,1.51,0,0,0,293.49,304.43Z" transform="translate(-165.26 -190.33)"/><path class="cls-1" d="M235.1,304.66a1.21,1.21,0,0,0-.72-0.21,2,2,0,0,0-1.28.47,3.33,3.33,0,0,0-.94,1.4,5.06,5.06,0,0,0-.37,1.86,2.25,2.25,0,0,0,.29,1.27,1,1,0,0,0,.86.41,1.75,1.75,0,0,0,1-.35,3.6,3.6,0,0,0,.91-0.95,4.65,4.65,0,0,0,.61-1.31,4.45,4.45,0,0,0,.21-1.21,2.08,2.08,0,0,0-.15-0.81A1.29,1.29,0,0,0,235.1,304.66Z" transform="translate(-165.26 -190.33)"/><path class="cls-1" d="M238.25,307.48v0.42a2.09,2.09,0,0,0,.46,1.46,1.73,1.73,0,0,0,1.34.5,2.05,2.05,0,0,0,1.28-.35,1.15,1.15,0,0,0,.46-1q0-1.06-1.54-1.06h-2Z" transform="translate(-165.26 -190.33)"/><path class="cls-1" d="M301.28,305.55a1,1,0,0,0-.32-0.8,1.31,1.31,0,0,0-.92-0.29,2.29,2.29,0,0,0-1.65.69,3.4,3.4,0,0,0-.93,1.83h1.37a3.63,3.63,0,0,0,1.83-.37A1.18,1.18,0,0,0,301.28,305.55Z" transform="translate(-165.26 -190.33)"/><path class="cls-1" d="M297.41,307.48v0.42a2.09,2.09,0,0,0,.46,1.46,1.73,1.73,0,0,0,1.34.5,2.05,2.05,0,0,0,1.28-.35,1.15,1.15,0,0,0,.46-1q0-1.06-1.54-1.06h-2Z" transform="translate(-165.26 -190.33)"/><path class="cls-2" d="M202.19,304a2.79,2.79,0,0,0-2.37,1.36h0l0.21-1.26h-0.47l-1.32,6.2h0.56l0.58-2.72a5.88,5.88,0,0,1,.59-1.63,3.09,3.09,0,0,1,.95-1.07,2.1,2.1,0,0,1,1.2-.38,1,1,0,0,1,.77.26,1,1,0,0,1,.25.71,4.11,4.11,0,0,1-.12.89l-0.85,3.95h0.56l0.84-3.84a5.2,5.2,0,0,0,.14-1,1.41,1.41,0,0,0-.37-1A1.52,1.52,0,0,0,202.19,304Z" transform="translate(-165.26 -190.33)"/><path class="cls-2" d="M208,303.94a2.66,2.66,0,0,0-1.6.51,3.48,3.48,0,0,0-1.12,1.47,5,5,0,0,0-.42,2,2.64,2.64,0,0,0,.54,1.79,2,2,0,0,0,1.59.62,2.7,2.7,0,0,0,1.63-.51,3.4,3.4,0,0,0,1.11-1.49,5.41,5.41,0,0,0,.41-2.1,2.45,2.45,0,0,0-.56-1.71A2,2,0,0,0,208,303.94Zm1.23,4.2a3,3,0,0,1-.9,1.3,2,2,0,0,1-1.29.44q-1.61,0-1.61-2a4.69,4.69,0,0,1,.34-1.77,3,3,0,0,1,.9-1.28,2,2,0,0,1,1.27-.45,1.51,1.51,0,0,1,1.2.47,2,2,0,0,1,.42,1.35A5.16,5.16,0,0,1,209.23,308.14Z" transform="translate(-165.26 -190.33)"/><path class="cls-2" d="M215.63,306.83a5.76,5.76,0,0,1-.57,1.59,3,3,0,0,1-.94,1.07,2.08,2.08,0,0,1-1.18.37,1.13,1.13,0,0,1-.79-0.25,0.86,0.86,0,0,1-.27-0.67A4.9,4.9,0,0,1,212,308l0.87-4h-0.57L211.45,308a5.35,5.35,0,0,0-.13,1,1.33,1.33,0,0,0,.38,1,1.62,1.62,0,0,0,1.13.35,2.81,2.81,0,0,0,2.3-1.26h0L215,310.26h0.46l1.32-6.2h-0.56Z" transform="translate(-165.26 -190.33)"/><path class="cls-2" d="M219.35,304.47a3.41,3.41,0,0,0-1.13,1.47,5.1,5.1,0,0,0-.42,2.06,2.5,2.5,0,0,0,.57,1.75,2,2,0,0,0,1.57.63,3.49,3.49,0,0,0,1.56-.32v-0.52a3.26,3.26,0,0,1-1.5.34,1.48,1.48,0,0,1-1.19-.49,2.07,2.07,0,0,1-.42-1.39,4.79,4.79,0,0,1,.34-1.82,2.89,2.89,0,0,1,.93-1.27,2.17,2.17,0,0,1,1.33-.44,3.07,3.07,0,0,1,1.24.27l0.16-.51A3.65,3.65,0,0,0,221,304,2.79,2.79,0,0,0,219.35,304.47Z" transform="translate(-165.26 -190.33)"/><polygon class="cls-2" points="61.91 113.73 58.64 116.72 59.27 113.73 58.71 113.73 57.43 119.93 57.99 119.93 58.63 116.8 60.86 119.93 61.59 119.93 59.28 116.77 62.74 113.73 61.91 113.73"/><path class="cls-2" d="M236,305.21h0a1.46,1.46,0,0,0-1.59-1.25,2.52,2.52,0,0,0-1.58.56,3.8,3.8,0,0,0-1.14,1.58,5.5,5.5,0,0,0-.43,2.14q0,2.13,1.6,2.13a2.21,2.21,0,0,0,1.35-.43,4.12,4.12,0,0,0,1.07-1.24h0L235,310.26h0.47l1.31-6.2h-0.46Zm-0.51,2a4.65,4.65,0,0,1-.61,1.31,3.6,3.6,0,0,1-.91.95,1.75,1.75,0,0,1-1,.35,1,1,0,0,1-.86-0.41,2.25,2.25,0,0,1-.29-1.27,5.06,5.06,0,0,1,.37-1.86,3.33,3.33,0,0,1,.94-1.4,2,2,0,0,1,1.28-.47,1.21,1.21,0,0,1,.72.21,1.29,1.29,0,0,1,.44.56,2.08,2.08,0,0,1,.15.81A4.45,4.45,0,0,1,235.47,307.25Z" transform="translate(-165.26 -190.33)"/><path class="cls-2" d="M242.29,306.59a1.51,1.51,0,0,0,.42-1.1,1.4,1.4,0,0,0-.46-1.11,1.94,1.94,0,0,0-1.31-.4,2.88,2.88,0,0,0-1.67.51,3.41,3.41,0,0,0-1.16,1.42,4.63,4.63,0,0,0-.42,2,2.72,2.72,0,0,0,.58,1.87,2.14,2.14,0,0,0,1.69.65,3.17,3.17,0,0,0,1.3-.24,1.91,1.91,0,0,0,.83-0.67,1.69,1.69,0,0,0,.29-1,1.18,1.18,0,0,0-.33-0.86,1.62,1.62,0,0,0-.93-0.44v0A2.28,2.28,0,0,0,242.29,306.59Zm-0.51,2a1.15,1.15,0,0,1-.46,1,2.05,2.05,0,0,1-1.28.35,1.73,1.73,0,0,1-1.34-.5,2.09,2.09,0,0,1-.46-1.46v-0.42h2Q241.78,307.48,241.78,308.54ZM239.67,307H238.3a3.4,3.4,0,0,1,.93-1.83,2.29,2.29,0,0,1,1.65-.69,1.31,1.31,0,0,1,.92.29,1,1,0,0,1,.32.8,1.18,1.18,0,0,1-.62,1.07A3.63,3.63,0,0,1,239.67,307Z" transform="translate(-165.26 -190.33)"/><path class="cls-2" d="M248.08,306.83a5.75,5.75,0,0,1-.57,1.59,3,3,0,0,1-.94,1.07,2.08,2.08,0,0,1-1.18.37,1.13,1.13,0,0,1-.79-0.25,0.86,0.86,0,0,1-.27-0.67,4.9,4.9,0,0,1,.13-0.9l0.87-4h-0.57L243.9,308a5.35,5.35,0,0,0-.13,1,1.33,1.33,0,0,0,.38,1,1.62,1.62,0,0,0,1.13.35,2.81,2.81,0,0,0,2.3-1.26h0l-0.16,1.17h0.46l1.32-6.2h-0.56Z" transform="translate(-165.26 -190.33)"/><path class="cls-2" d="M255,305.21h0a1.46,1.46,0,0,0-1.59-1.25,2.52,2.52,0,0,0-1.58.56,3.8,3.8,0,0,0-1.14,1.58,5.5,5.5,0,0,0-.43,2.14q0,2.13,1.6,2.13a2.21,2.21,0,0,0,1.35-.43,4.12,4.12,0,0,0,1.07-1.24h0l-0.26,1.56h0.47l1.31-6.2h-0.46Zm-0.51,2a4.65,4.65,0,0,1-.61,1.31,3.6,3.6,0,0,1-.91.95,1.75,1.75,0,0,1-1,.35,1,1,0,0,1-.86-0.41,2.25,2.25,0,0,1-.29-1.27,5.06,5.06,0,0,1,.36-1.86,3.33,3.33,0,0,1,.94-1.4,2,2,0,0,1,1.28-.47,1.21,1.21,0,0,1,.72.21,1.29,1.29,0,0,1,.44.56,2.08,2.08,0,0,1,.15.81A4.45,4.45,0,0,1,254.52,307.25Z" transform="translate(-165.26 -190.33)"/><path class="cls-2" d="M261,301.65a14.32,14.32,0,0,0-1.48.36,3.09,3.09,0,0,0-1.44,1,6,6,0,0,0-1,2.07,9.21,9.21,0,0,0-.38,2.65,3,3,0,0,0,.53,1.92,1.81,1.81,0,0,0,1.51.67,2.56,2.56,0,0,0,1.47-.42,2.81,2.81,0,0,0,1-1.29,5,5,0,0,0,.36-1.94,2.47,2.47,0,0,0-.48-1.63,1.65,1.65,0,0,0-1.33-.56,2.91,2.91,0,0,0-2.26,1.24h0a6.44,6.44,0,0,1,.88-2.16,2.71,2.71,0,0,1,1.32-1.09,21,21,0,0,1,2.45-.56l0.36-.07-0.07-.49Q262,301.46,261,301.65Zm-2.49,3.7a2.13,2.13,0,0,1,1.12-.33,1.2,1.2,0,0,1,1,.43,2.08,2.08,0,0,1,.36,1.33,4.6,4.6,0,0,1-.26,1.6,2.45,2.45,0,0,1-.75,1.09,1.78,1.78,0,0,1-1.15.39,1.33,1.33,0,0,1-1.17-.52,2.81,2.81,0,0,1-.37-1.62q0-.27,0-0.68t0.07-.61A4.53,4.53,0,0,1,258.52,305.36Z" transform="translate(-165.26 -190.33)"/><path class="cls-2" d="M267.71,304.06l-0.6,2.77a5.75,5.75,0,0,1-.57,1.59,3,3,0,0,1-.94,1.07,2.08,2.08,0,0,1-1.18.37,1.13,1.13,0,0,1-.79-0.25,0.86,0.86,0,0,1-.27-0.67,4.9,4.9,0,0,1,.13-0.9l0.87-4h-0.57L262.93,308a5.35,5.35,0,0,0-.13,1,1.33,1.33,0,0,0,.38,1,1.62,1.62,0,0,0,1.13.35,2.81,2.81,0,0,0,2.3-1.26h0l-0.16,1.17H267l1.32-6.2h-0.56Z" transform="translate(-165.26 -190.33)"/><path class="cls-2" d="M272,304.26a2.23,2.23,0,0,0-.82.82,10.49,10.49,0,0,0-.83,2,16.08,16.08,0,0,1-.69,1.78,2.21,2.21,0,0,1-.54.75,1.09,1.09,0,0,1-.7.22,1.25,1.25,0,0,1-.34,0v0.51a1.11,1.11,0,0,0,.35,0,1.61,1.61,0,0,0,.92-0.25,2.31,2.31,0,0,0,.69-0.82,13.71,13.71,0,0,0,.8-2,11.54,11.54,0,0,1,.7-1.75,2.1,2.1,0,0,1,.64-0.76,1.55,1.55,0,0,1,.87-0.23,2.69,2.69,0,0,1,.42,0l-1.23,5.74h0.55l1.32-6.15a5.33,5.33,0,0,0-1-.1A2.39,2.39,0,0,0,272,304.26Z" transform="translate(-165.26 -190.33)"/><path class="cls-2" d="M278.23,304a2.47,2.47,0,0,0-1.56.56,3.74,3.74,0,0,0-1.11,1.51,5,5,0,0,0-.4,2,2.54,2.54,0,0,0,.55,1.74,2,2,0,0,0,1.54.62,3.8,3.8,0,0,0,1.7-.39v-0.54a3.48,3.48,0,0,1-1.57.42,1.51,1.51,0,0,1-1.21-.49,2.15,2.15,0,0,1-.42-1.43,4.23,4.23,0,0,1,0-.56H276a5.62,5.62,0,0,0,2.77-.54,1.72,1.72,0,0,0,.93-1.57,1.21,1.21,0,0,0-.39-0.95A1.49,1.49,0,0,0,278.23,304Zm-2.1,2.91h-0.28a3.85,3.85,0,0,1,.93-1.76,1.92,1.92,0,0,1,1.39-.66,0.9,0.9,0,0,1,.66.25,0.86,0.86,0,0,1,.25.63Q279.07,306.87,276.12,306.87Z" transform="translate(-165.26 -190.33)"/><path class="cls-2" d="M287.73,304a2.31,2.31,0,0,0-1.27.38,3.28,3.28,0,0,0-1,1.11h0a1.74,1.74,0,0,0-.34-1.11,1.15,1.15,0,0,0-.93-0.38,2.44,2.44,0,0,0-1.21.33,3.2,3.2,0,0,0-1,1h0l0.19-1.2h-0.46l-1.32,6.2h0.56l0.57-2.71a6.12,6.12,0,0,1,.57-1.64,3.09,3.09,0,0,1,.91-1.07,1.92,1.92,0,0,1,1.14-.39,0.85,0.85,0,0,1,.88,1,6.28,6.28,0,0,1-.14.92l-0.84,3.84h0.58l0.62-3a4.5,4.5,0,0,1,1-2.07,2.06,2.06,0,0,1,1.58-.78,0.85,0.85,0,0,1,.92.92,5.52,5.52,0,0,1-.14,1l-0.85,3.88h0.57l0.87-3.93q0.1-.52.11-0.68c0-.1,0-0.21,0-0.32a1.31,1.31,0,0,0-.37-1A1.46,1.46,0,0,0,287.73,304Z" transform="translate(-165.26 -190.33)"/><path class="cls-2" d="M293.54,303.94a2.66,2.66,0,0,0-1.6.51,3.48,3.48,0,0,0-1.12,1.47,5,5,0,0,0-.42,2,2.64,2.64,0,0,0,.54,1.79,2,2,0,0,0,1.59.62,2.7,2.7,0,0,0,1.63-.51,3.4,3.4,0,0,0,1.11-1.49,5.41,5.41,0,0,0,.41-2.1,2.45,2.45,0,0,0-.56-1.71A2,2,0,0,0,293.54,303.94Zm1.23,4.2a3,3,0,0,1-.9,1.3,2,2,0,0,1-1.29.44q-1.61,0-1.61-2a4.69,4.69,0,0,1,.34-1.77,3,3,0,0,1,.9-1.28,2,2,0,0,1,1.27-.45,1.51,1.51,0,0,1,1.2.47,2,2,0,0,1,.42,1.35A5.16,5.16,0,0,1,294.77,308.14Z" transform="translate(-165.26 -190.33)"/><path class="cls-2" d="M301.45,306.59a1.51,1.51,0,0,0,.42-1.1,1.4,1.4,0,0,0-.46-1.11,1.94,1.94,0,0,0-1.31-.4,2.88,2.88,0,0,0-1.67.51,3.41,3.41,0,0,0-1.16,1.42,4.63,4.63,0,0,0-.42,2,2.72,2.72,0,0,0,.58,1.87,2.14,2.14,0,0,0,1.69.65,3.17,3.17,0,0,0,1.3-.24,1.91,1.91,0,0,0,.83-0.67,1.69,1.69,0,0,0,.29-1,1.18,1.18,0,0,0-.33-0.86,1.62,1.62,0,0,0-.93-0.44v0A2.28,2.28,0,0,0,301.45,306.59Zm-0.51,2a1.15,1.15,0,0,1-.46,1,2.05,2.05,0,0,1-1.28.35,1.73,1.73,0,0,1-1.34-.5,2.09,2.09,0,0,1-.46-1.46v-0.42h2Q300.94,307.48,300.94,308.54ZM298.83,307h-1.37a3.4,3.4,0,0,1,.93-1.83,2.29,2.29,0,0,1,1.65-.69,1.31,1.31,0,0,1,.92.29,1,1,0,0,1,.32.8,1.18,1.18,0,0,1-.62,1.07A3.63,3.63,0,0,1,298.83,307Z" transform="translate(-165.26 -190.33)"/><path class="cls-1" d="M217.79,284.79l-3.11.13a11.76,11.76,0,0,0-5.35,1.17,3.37,3.37,0,0,0-1.6,3.09,3.32,3.32,0,0,0,1,2.6,4.16,4.16,0,0,0,2.89.93,5.67,5.67,0,0,0,6.14-6.16v-1.75Z" transform="translate(-165.26 -190.33)"/><path class="cls-1" d="M245.05,292.71a5.67,5.67,0,0,0,6.14-6.16v-1.75l-3.11.13a11.76,11.76,0,0,0-5.35,1.17,3.37,3.37,0,0,0-1.6,3.09,3.32,3.32,0,0,0,1,2.6A4.16,4.16,0,0,0,245.05,292.71Z" transform="translate(-165.26 -190.33)"/><path class="cls-1" d="M168.58,286.1a3.37,3.37,0,0,0-1.6,3.09,3.32,3.32,0,0,0,1,2.6,4.16,4.16,0,0,0,2.89.93,5.67,5.67,0,0,0,6.14-6.16v-1.75l-3.11.13A11.76,11.76,0,0,0,168.58,286.1Z" transform="translate(-165.26 -190.33)"/><path class="cls-1" d="M272.87,277.15a5.33,5.33,0,0,0-4.13,1.7,8,8,0,0,0-1.82,4.89h11a7.77,7.77,0,0,0-1.34-4.84A4.43,4.43,0,0,0,272.87,277.15Z" transform="translate(-165.26 -190.33)"/><path class="cls-2" d="M178.64,282a6.69,6.69,0,0,0-1.45-4.75,5.78,5.78,0,0,0-4.38-1.52,13.57,13.57,0,0,0-5.8,1.38l0.61,1.41a11.12,11.12,0,0,1,5.13-1.38,4,4,0,0,1,3.33,1.29,6.05,6.05,0,0,1,1,3.83v1.18l-3.39.1a11.8,11.8,0,0,0-6.28,1.52,4.59,4.59,0,0,0-2.17,4,4.8,4.8,0,0,0,1.46,3.72,5.79,5.79,0,0,0,4.08,1.34,7.37,7.37,0,0,0,3.35-.71,8.46,8.46,0,0,0,2.76-2.43H177l0.41,2.82h1.2V282ZM177,286.55a5.67,5.67,0,0,1-6.14,6.16,4.16,4.16,0,0,1-2.89-.93,3.32,3.32,0,0,1-1-2.6,3.37,3.37,0,0,1,1.6-3.09,11.76,11.76,0,0,1,5.35-1.17l3.11-.13v1.75Z" transform="translate(-165.26 -190.33)"/><path class="cls-2" d="M190.55,288.12q-0.7,1.87-1.38,4.1h-0.1a37.3,37.3,0,0,0-1.38-4.06L183.1,276h-1.67l6.88,17.81h1.64L196.83,276h-1.67Z" transform="translate(-165.26 -190.33)"/><rect class="cls-2" x="34.55" y="85.71" width="1.62" height="17.81"/><path class="cls-2" d="M217.79,291l0.41,2.82h1.2V282a6.69,6.69,0,0,0-1.45-4.75,5.78,5.78,0,0,0-4.38-1.52,13.57,13.57,0,0,0-5.8,1.38l0.61,1.41a11.12,11.12,0,0,1,5.13-1.38,4,4,0,0,1,3.33,1.29,6.05,6.05,0,0,1,1,3.83v1.18l-3.39.1a11.8,11.8,0,0,0-6.28,1.52,4.59,4.59,0,0,0-2.17,4,4.8,4.8,0,0,0,1.46,3.72,5.79,5.79,0,0,0,4.08,1.34,7.37,7.37,0,0,0,3.35-.71,8.46,8.46,0,0,0,2.76-2.43h0.13Zm-1.65,0a6.11,6.11,0,0,1-4.5,1.63,4.16,4.16,0,0,1-2.89-.93,3.32,3.32,0,0,1-1-2.6,3.37,3.37,0,0,1,1.6-3.09,11.76,11.76,0,0,1,5.35-1.17l3.11-.13v1.75A6.09,6.09,0,0,1,216.15,291.08Z" transform="translate(-165.26 -190.33)"/><path class="cls-2" d="M234.39,292.9a4.23,4.23,0,0,0,1.82-3.68,3.87,3.87,0,0,0-.55-2.08,5.1,5.1,0,0,0-1.65-1.58,19.07,19.07,0,0,0-3.51-1.56,13.83,13.83,0,0,1-3.87-1.87,2.77,2.77,0,0,1-1-2.23,2.21,2.21,0,0,1,1.28-2,7,7,0,0,1,3.46-.72,12.83,12.83,0,0,1,4.86,1.08l0.61-1.47a14,14,0,0,0-5.47-1.08,8.16,8.16,0,0,0-4.69,1.16A3.65,3.65,0,0,0,224,280a4,4,0,0,0,.55,2.14,5.18,5.18,0,0,0,1.63,1.57,20.47,20.47,0,0,0,3.75,1.66,12,12,0,0,1,3.58,1.8,2.85,2.85,0,0,1,1.09,2.26,2.66,2.66,0,0,1-1.37,2.33,7.47,7.47,0,0,1-4,.88,12.51,12.51,0,0,1-5.67-1.34v1.75a12.3,12.3,0,0,0,5.67,1.1A8.85,8.85,0,0,0,234.39,292.9Z" transform="translate(-165.26 -190.33)"/><path class="cls-2" d="M245,294.18a7.37,7.37,0,0,0,3.35-.71,8.46,8.46,0,0,0,2.76-2.43h0.13l0.41,2.82h1.2V282a6.69,6.69,0,0,0-1.45-4.75,5.78,5.78,0,0,0-4.38-1.52,13.57,13.57,0,0,0-5.8,1.38l0.61,1.41a11.12,11.12,0,0,1,5.13-1.38,4,4,0,0,1,3.33,1.29,6.05,6.05,0,0,1,1,3.83v1.18l-3.39.1a11.8,11.8,0,0,0-6.28,1.52,4.59,4.59,0,0,0-2.17,4,4.8,4.8,0,0,0,1.46,3.72A5.79,5.79,0,0,0,245,294.18Zm-2.22-8.08a11.76,11.76,0,0,1,5.35-1.17l3.11-.13v1.75a5.67,5.67,0,0,1-6.14,6.16,4.16,4.16,0,0,1-2.89-.93,3.32,3.32,0,0,1-1-2.6A3.37,3.37,0,0,1,242.73,286.1Z" transform="translate(-165.26 -190.33)"/><rect class="cls-2" x="93.3" y="78.03" width="1.62" height="25.49"/><path class="cls-2" d="M272.87,275.7a6.92,6.92,0,0,0-5.65,2.56,10.44,10.44,0,0,0-2.1,6.82,9.61,9.61,0,0,0,2.17,6.7,7.76,7.76,0,0,0,6.05,2.39,15.49,15.49,0,0,0,2.82-.24,13,13,0,0,0,2.78-.89v-1.47a16.26,16.26,0,0,1-2.92.92,14.91,14.91,0,0,1-2.68.21,6,6,0,0,1-4.81-1.93,8.42,8.42,0,0,1-1.71-5.6h12.83v-1.31a9.06,9.06,0,0,0-1.82-6A6.1,6.1,0,0,0,272.87,275.7Zm-5.95,8a8,8,0,0,1,1.82-4.89,5.33,5.33,0,0,1,4.13-1.7,4.43,4.43,0,0,1,3.72,1.74,7.77,7.77,0,0,1,1.34,4.84h-11Z" transform="translate(-165.26 -190.33)"/><path class="cls-2" d="M293.41,285.56A19.07,19.07,0,0,0,289.9,284a13.83,13.83,0,0,1-3.87-1.87,2.77,2.77,0,0,1-1-2.23,2.21,2.21,0,0,1,1.28-2,7,7,0,0,1,3.46-.72,12.83,12.83,0,0,1,4.86,1.08l0.61-1.47a14,14,0,0,0-5.47-1.08,8.16,8.16,0,0,0-4.69,1.16A3.65,3.65,0,0,0,283.4,280a4,4,0,0,0,.55,2.14,5.18,5.18,0,0,0,1.63,1.57,20.48,20.48,0,0,0,3.75,1.66,12,12,0,0,1,3.58,1.8,2.85,2.85,0,0,1,1.09,2.26,2.66,2.66,0,0,1-1.37,2.33,7.47,7.47,0,0,1-4,.88,12.51,12.51,0,0,1-5.67-1.34v1.75a12.3,12.3,0,0,0,5.67,1.1,8.85,8.85,0,0,0,5.16-1.29,4.23,4.23,0,0,0,1.82-3.68,3.86,3.86,0,0,0-.55-2.08A5.1,5.1,0,0,0,293.41,285.56Z" transform="translate(-165.26 -190.33)"/><path class="cls-2" d="M312.16,276.5a7.55,7.55,0,0,0-2.34,2.76h-0.11L309.54,276h-1.38v17.81h1.62V284a7.88,7.88,0,0,1,1.46-4.88,4.49,4.49,0,0,1,3.73-1.93,9.5,9.5,0,0,1,2.31.28l0.31-1.56a14,14,0,0,0-2.42-.23A5.49,5.49,0,0,0,312.16,276.5Z" transform="translate(-165.26 -190.33)"/><path class="cls-2" d="M333.44,276v9.83q0,3.62-1.5,5.23a6.12,6.12,0,0,1-4.68,1.61,4.56,4.56,0,0,1-3.51-1.22,5.63,5.63,0,0,1-1.13-3.91V276H321v11.63q0,6.5,6.08,6.5,4.44,0,6.18-2.78h0.1l0.3,2.46H335V276h-1.61Z" transform="translate(-165.26 -190.33)"/><circle class="cls-2" cx="35.36" cy="80.77" r="1.19"/><circle class="cls-2" cx="135.93" cy="102.24" r="1.19"/><path class="cls-2" d="M267.45,190.33H232a12,12,0,0,0-11.8,11.8v36.4a12,12,0,0,0,11.8,11.8h35.44c7.15,0,12.76-5.18,12.76-11.8v-36.4C280.21,196,274.13,190.33,267.45,190.33Zm11.07,47.93c0,5.66-4.72,10.38-11.32,10.38H232.28a10.47,10.47,0,0,1-10.38-10.38V202.4A10.47,10.47,0,0,1,232.28,192H267.2c5.66,0,11.32,4.72,11.32,10.38v35.86Z" transform="translate(-165.26 -190.33)"/><path class="cls-2" d="M252.1,207.06h-3.77a9.65,9.65,0,0,0-9.61,9.5v12.27a9.78,9.78,0,0,0,9.61,9.64h3.77a9.78,9.78,0,0,0,9.61-9.64V216.56A9.65,9.65,0,0,0,252.1,207.06Zm5.63,16.54a6.18,6.18,0,0,1-6.44,6h-2.16a6.18,6.18,0,0,1-6.44-6v-6.55a6.18,6.18,0,0,1,6.44-6h2.16a6.18,6.18,0,0,1,6.44,6v6.55Z" transform="translate(-165.26 -190.33)"/><path class="cls-2" d="M265.75,196h-31.9c-4.91,0-8,3.06-8,8V211h1.82c3.57,0,6.59,2.61,6.59,6v6.55c0,3.4-3,6-6.59,6h-1.82v7.07c0,4.91,3.06,8,8,8h31.9c5.72,0,8.79-3.06,8.79-8v-7.07h-1.82c-3.57,0-6.59-2.61-6.59-6v-6.55c0-3.4,3-6,6.59-6h1.82V204C274.54,199.07,270.66,196,265.75,196Zm-2.38,32.77a11.35,11.35,0,0,1-11.29,11.32h-3.74a11.35,11.35,0,0,1-11.29-11.32V216.61a11.23,11.23,0,0,1,11.29-11.17h3.74a11.23,11.23,0,0,1,11.29,11.17v12.16Z" transform="translate(-165.26 -190.33)"/><path class="cls-2" d="M250.21,226.39H250c-2.48,0-4-1-4-3.62v-2.43a0.85,0.85,0,0,0-.81-0.89,0.84,0.84,0,0,0-.8.89v2.43c0,3.46,2.29,5.24,5.66,5.24h0.18a0.78,0.78,0,0,0,.79-0.79A0.82,0.82,0,0,0,250.21,226.39Z" transform="translate(-165.26 -190.33)"/></svg>