<svg id="Landscape_Logo" data-name="Landscape Logo" xmlns="http://www.w3.org/2000/svg" viewBox="0 0 247.58 60"><defs><style>.cls-1{fill:#fff;}.cls-2{fill:none;}</style></defs><title>[AS] Logo Landscape Invert</title><path class="cls-1" d="M175.24,220H139.8A12,12,0,0,0,128,231.8v36.4A12,12,0,0,0,139.8,280h35.44c7.15,0,12.76-5.18,12.76-11.8V231.8C188,225.62,181.92,220,175.24,220Zm11.07,47.93c0,5.66-4.72,10.38-11.32,10.38H140.07a10.47,10.47,0,0,1-10.38-10.38V232.07a10.47,10.47,0,0,1,10.38-10.38H175c5.66,0,11.32,4.72,11.32,10.38v35.86Z" transform="translate(-128 -220)"/><path class="cls-1" d="M159.89,236.73h-3.77a9.65,9.65,0,0,0-9.61,9.5v12.27a9.78,9.78,0,0,0,9.61,9.64h3.77a9.78,9.78,0,0,0,9.61-9.64V246.23A9.65,9.65,0,0,0,159.89,236.73Zm5.63,16.54a6.18,6.18,0,0,1-6.44,6h-2.16a6.18,6.18,0,0,1-6.44-6v-6.55a6.18,6.18,0,0,1,6.44-6h2.16a6.18,6.18,0,0,1,6.44,6v6.55Z" transform="translate(-128 -220)"/><path class="cls-1" d="M173.54,225.67h-31.9c-4.91,0-8,3.06-8,8v7.07h1.82c3.57,0,6.59,2.61,6.59,6v6.55c0,3.4-3,6-6.59,6h-1.82v7.07c0,4.91,3.06,8,8,8h31.9c5.72,0,8.79-3.06,8.79-8v-7.07h-1.82c-3.57,0-6.59-2.61-6.59-6v-6.55c0-3.4,3-6,6.59-6h1.82v-7.07C182.33,228.74,178.45,225.67,173.54,225.67Zm-2.38,32.77a11.35,11.35,0,0,1-11.29,11.32h-3.74a11.35,11.35,0,0,1-11.29-11.32V246.28a11.23,11.23,0,0,1,11.29-11.17h3.74a11.23,11.23,0,0,1,11.29,11.17v12.16Z" transform="translate(-128 -220)"/><path class="cls-1" d="M158,256.06h-0.18c-2.48,0-4-1-4-3.62V250a0.85,0.85,0,0,0-.81-0.89,0.84,0.84,0,0,0-.8.89v2.43c0,3.46,2.29,5.24,5.66,5.24H158a0.78,0.78,0,0,0,.79-0.79A0.82,0.82,0,0,0,158,256.06Z" transform="translate(-128 -220)"/><path class="cls-2" d="M258.32,249.66l-3.11.13a11.75,11.75,0,0,0-5.35,1.17,3.37,3.37,0,0,0-1.6,3.09,3.32,3.32,0,0,0,1,2.6,4.16,4.16,0,0,0,2.89.93,5.67,5.67,0,0,0,6.14-6.16v-1.75Z" transform="translate(-128 -220)"/><path class="cls-2" d="M285.58,257.57a5.67,5.67,0,0,0,6.14-6.16v-1.75l-3.11.13a11.76,11.76,0,0,0-5.35,1.17,3.37,3.37,0,0,0-1.6,3.09,3.32,3.32,0,0,0,1,2.6A4.16,4.16,0,0,0,285.58,257.57Z" transform="translate(-128 -220)"/><path class="cls-2" d="M209.11,251a3.37,3.37,0,0,0-1.6,3.09,3.32,3.32,0,0,0,1,2.6,4.16,4.16,0,0,0,2.89.93,5.67,5.67,0,0,0,6.14-6.16v-1.75l-3.11.13A11.75,11.75,0,0,0,209.11,251Z" transform="translate(-128 -220)"/><path class="cls-2" d="M313.39,242a5.33,5.33,0,0,0-4.13,1.7,8,8,0,0,0-1.82,4.89h11a7.77,7.77,0,0,0-1.34-4.84A4.43,4.43,0,0,0,313.39,242Z" transform="translate(-128 -220)"/><path class="cls-1" d="M219.17,246.88a6.69,6.69,0,0,0-1.45-4.75,5.78,5.78,0,0,0-4.38-1.52,13.57,13.57,0,0,0-5.8,1.38l0.61,1.41a11.12,11.12,0,0,1,5.13-1.38,4,4,0,0,1,3.33,1.29,6.05,6.05,0,0,1,1,3.83v1.18l-3.39.1a11.8,11.8,0,0,0-6.28,1.52,4.59,4.59,0,0,0-2.17,4,4.8,4.8,0,0,0,1.46,3.72,5.79,5.79,0,0,0,4.08,1.34,7.37,7.37,0,0,0,3.35-.71,8.46,8.46,0,0,0,2.76-2.43h0.13l0.41,2.82h1.2V246.88Zm-1.61,4.54a5.67,5.67,0,0,1-6.14,6.16,4.16,4.16,0,0,1-2.89-.93,3.32,3.32,0,0,1-1-2.6,3.37,3.37,0,0,1,1.6-3.09,11.75,11.75,0,0,1,5.35-1.17l3.11-.13v1.75Z" transform="translate(-128 -220)"/><path class="cls-1" d="M231.08,253q-0.7,1.87-1.38,4.1h-0.1a37.27,37.27,0,0,0-1.38-4.06l-4.6-12.11H222l6.88,17.81h1.64l6.88-17.81h-1.67Z" transform="translate(-128 -220)"/><rect class="cls-1" x="112.34" y="20.91" width="1.62" height="17.81"/><path class="cls-1" d="M258.32,255.9l0.41,2.82h1.2V246.88a6.69,6.69,0,0,0-1.45-4.75,5.78,5.78,0,0,0-4.38-1.52,13.57,13.57,0,0,0-5.8,1.38l0.61,1.41A11.12,11.12,0,0,1,254,242a4,4,0,0,1,3.33,1.29,6.05,6.05,0,0,1,1,3.83v1.18l-3.39.1a11.8,11.8,0,0,0-6.28,1.52,4.59,4.59,0,0,0-2.17,4,4.8,4.8,0,0,0,1.46,3.72,5.79,5.79,0,0,0,4.08,1.34,7.37,7.37,0,0,0,3.35-.71,8.46,8.46,0,0,0,2.76-2.43h0.13Zm-1.65,0a6.11,6.11,0,0,1-4.5,1.63,4.16,4.16,0,0,1-2.89-.93,3.32,3.32,0,0,1-1-2.6,3.37,3.37,0,0,1,1.6-3.09,11.75,11.75,0,0,1,5.35-1.17l3.11-.13v1.75A6.09,6.09,0,0,1,256.68,255.94Z" transform="translate(-128 -220)"/><path class="cls-1" d="M274.92,257.76a4.23,4.23,0,0,0,1.82-3.68,3.87,3.87,0,0,0-.55-2.08,5.1,5.1,0,0,0-1.65-1.58,19.07,19.07,0,0,0-3.51-1.56,13.82,13.82,0,0,1-3.87-1.87,2.77,2.77,0,0,1-1-2.23,2.21,2.21,0,0,1,1.28-2,7,7,0,0,1,3.46-.72,12.83,12.83,0,0,1,4.86,1.08l0.61-1.47a14.05,14.05,0,0,0-5.47-1.08,8.16,8.16,0,0,0-4.69,1.16,3.65,3.65,0,0,0-1.68,3.16,4,4,0,0,0,.55,2.14,5.18,5.18,0,0,0,1.63,1.57,20.48,20.48,0,0,0,3.75,1.66,12,12,0,0,1,3.58,1.8,2.85,2.85,0,0,1,1.09,2.26,2.66,2.66,0,0,1-1.37,2.33,7.47,7.47,0,0,1-4,.88,12.51,12.51,0,0,1-5.67-1.34V258a12.3,12.3,0,0,0,5.67,1.1A8.85,8.85,0,0,0,274.92,257.76Z" transform="translate(-128 -220)"/><path class="cls-1" d="M285.48,259a7.37,7.37,0,0,0,3.35-.71,8.46,8.46,0,0,0,2.76-2.43h0.13l0.41,2.82h1.2V246.88a6.69,6.69,0,0,0-1.45-4.75,5.78,5.78,0,0,0-4.38-1.52,13.57,13.57,0,0,0-5.8,1.38l0.61,1.41a11.12,11.12,0,0,1,5.13-1.38,4,4,0,0,1,3.33,1.29,6.05,6.05,0,0,1,1,3.83v1.18l-3.39.1a11.8,11.8,0,0,0-6.28,1.52,4.59,4.59,0,0,0-2.17,4,4.8,4.8,0,0,0,1.46,3.72A5.79,5.79,0,0,0,285.48,259ZM283.26,251a11.76,11.76,0,0,1,5.35-1.17l3.11-.13v1.75a5.67,5.67,0,0,1-6.14,6.16,4.16,4.16,0,0,1-2.89-.93,3.32,3.32,0,0,1-1-2.6A3.37,3.37,0,0,1,283.26,251Z" transform="translate(-128 -220)"/><rect class="cls-1" x="171.09" y="13.23" width="1.62" height="25.49"/><path class="cls-1" d="M313.39,240.57a6.92,6.92,0,0,0-5.65,2.56,10.44,10.44,0,0,0-2.1,6.82,9.61,9.61,0,0,0,2.17,6.7,7.76,7.76,0,0,0,6.05,2.39,15.49,15.49,0,0,0,2.82-.24,13,13,0,0,0,2.78-.89v-1.47a16.25,16.25,0,0,1-2.92.92,14.91,14.91,0,0,1-2.68.21,6,6,0,0,1-4.81-1.93,8.42,8.42,0,0,1-1.71-5.6h12.83v-1.31a9.06,9.06,0,0,0-1.82-6A6.1,6.1,0,0,0,313.39,240.57Zm-5.95,8a8,8,0,0,1,1.82-4.89,5.33,5.33,0,0,1,4.13-1.7,4.43,4.43,0,0,1,3.72,1.74,7.77,7.77,0,0,1,1.34,4.84h-11Z" transform="translate(-128 -220)"/><path class="cls-1" d="M333.94,250.42a19.07,19.07,0,0,0-3.51-1.56,13.82,13.82,0,0,1-3.87-1.87,2.77,2.77,0,0,1-1-2.23,2.21,2.21,0,0,1,1.28-2,7,7,0,0,1,3.46-.72,12.83,12.83,0,0,1,4.86,1.08l0.61-1.47a14.05,14.05,0,0,0-5.47-1.08,8.16,8.16,0,0,0-4.69,1.16,3.65,3.65,0,0,0-1.68,3.16,4,4,0,0,0,.55,2.14,5.18,5.18,0,0,0,1.63,1.57,20.48,20.48,0,0,0,3.75,1.66,12,12,0,0,1,3.58,1.8,2.85,2.85,0,0,1,1.09,2.26,2.66,2.66,0,0,1-1.37,2.33,7.47,7.47,0,0,1-4,.88,12.51,12.51,0,0,1-5.67-1.34V258a12.3,12.3,0,0,0,5.67,1.1,8.85,8.85,0,0,0,5.16-1.29,4.23,4.23,0,0,0,1.82-3.68,3.87,3.87,0,0,0-.55-2.08A5.1,5.1,0,0,0,333.94,250.42Z" transform="translate(-128 -220)"/><path class="cls-1" d="M352.69,241.37a7.55,7.55,0,0,0-2.34,2.76h-0.11l-0.16-3.21H348.7v17.81h1.62v-9.83a7.88,7.88,0,0,1,1.46-4.88,4.49,4.49,0,0,1,3.73-1.93,9.51,9.51,0,0,1,2.31.28l0.31-1.56a14,14,0,0,0-2.42-.23A5.49,5.49,0,0,0,352.69,241.37Z" transform="translate(-128 -220)"/><path class="cls-1" d="M374,240.92v9.83q0,3.62-1.5,5.23a6.12,6.12,0,0,1-4.68,1.61,4.56,4.56,0,0,1-3.51-1.22,5.63,5.63,0,0,1-1.13-3.91V240.92h-1.6v11.63q0,6.5,6.08,6.5,4.44,0,6.18-2.79h0.1l0.29,2.46h1.38V240.92H374Z" transform="translate(-128 -220)"/><circle class="cls-1" cx="113.15" cy="15.98" r="1.19"/><circle class="cls-1" cx="213.72" cy="37.44" r="1.19"/></svg>