<?xml version="1.0" encoding="UTF-8" standalone="no"?>
<svg
   xmlns:dc="http://purl.org/dc/elements/1.1/"
   xmlns:cc="http://creativecommons.org/ns#"
   xmlns:rdf="http://www.w3.org/1999/02/22-rdf-syntax-ns#"
   xmlns:svg="http://www.w3.org/2000/svg"
   xmlns="http://www.w3.org/2000/svg"
   version="1.1"
   id="svg3472"
   viewBox="0 0 70.000002 70.099998"
   height="19.783777mm"
   width="19.755556mm">
  <defs
     id="defs3474" />
  <metadata
     id="metadata3477">
    <rdf:RDF>
      <cc:Work
         rdf:about="">
        <dc:format>image/svg+xml</dc:format>
        <dc:type
           rdf:resource="http://purl.org/dc/dcmitype/StillImage" />
        <dc:title></dc:title>
      </cc:Work>
    </rdf:RDF>
  </metadata>
  <g
     transform="translate(-202.14286,-285.88363)"
     id="layer1">
    <g
       transform="translate(187.14286,270.98363)"
       id="g3501">
      <g
         id="g3483">
        <g
           id="g3485">
          <g
             id="a">
            <path
               d="m 83.6,25.2 c 1,-1 1.4,-3.4 1.4,-7.3 0,-0.7 -0.3,-1.4 -0.8,-2.1 -0.6,-0.6 -1.3,-0.9 -2.1,-0.9 -3.9,0 -6.3,0.5 -7.3,1.5 l -11.6,13.2 -45.3,0 -2.9,4.4 32.1,10.3 -8.8,11.6 -13.1,0 -4.4,4.4 8.8,3 0,4.3 c 0,0.8 0.3,1.5 0.9,2.1 0.7,0.6 1.4,0.9 2,0.9 l 4.4,0 2.9,8.8 4.4,-4.4 0,-13.3 11.6,-8.7 10.2,32 4.3,-2.9 0,-45.2 13.3,-11.7 z"
               id="path3488" />
          </g>
        </g>
      </g>
      <text
         style="font-size:5px;font-family:Arial-BoldMT;display:none;enable-background:new"
         transform="translate(0,115)"
         class="st0 st1 st2"
         id="text3490">Created by Miso Duzek</text>
      <text
         style="font-size:5px;font-family:Arial-BoldMT;display:none;enable-background:new"
         transform="translate(0,120)"
         class="st0 st1 st2"
         id="text3492">from the Noun Project</text>
    </g>
  </g>
  <style
     type="text/css"
     id="style3481">
	.st0{display:none;enable-background:new    ;}
	.st1{font-family:'Arial-BoldMT';}
	.st2{font-size:5px;}
</style>
</svg>
