<?xml version="1.0" encoding="UTF-8" standalone="no"?>
<svg
   xmlns:dc="http://purl.org/dc/elements/1.1/"
   xmlns:cc="http://creativecommons.org/ns#"
   xmlns:rdf="http://www.w3.org/1999/02/22-rdf-syntax-ns#"
   xmlns:svg="http://www.w3.org/2000/svg"
   xmlns="http://www.w3.org/2000/svg"
   version="1.1"
   id="svg3509"
   viewBox="0 0 90.049997 89.972972"
   height="25.392372mm"
   width="25.41411mm">
  <defs
     id="defs3511" />
  <metadata
     id="metadata3514">
    <rdf:RDF>
      <cc:Work
         rdf:about="">
        <dc:format>image/svg+xml</dc:format>
        <dc:type
           rdf:resource="http://purl.org/dc/dcmitype/StillImage" />
        <dc:title></dc:title>
      </cc:Work>
    </rdf:RDF>
  </metadata>
  <g
     transform="translate(-183.54643,-373.09001)"
     id="layer1">
    <g
       transform="translate(178.59643,368.06298)"
       id="g3533">
      <path
         d="m 54,40.8 c -1.3,0 -2.3,-1 -2.3,-2.3 0,-3.5 -1.4,-6.9 -3.9,-9.4 -2.5,-2.5 -5.9,-3.9 -9.4,-3.9 l 0,0 c -1.2,0 -2.2,-1 -2.2,-2.3 0,-1.2 1,-2.3 2.2,-2.3 l 0,0 c 4.8,0 9.3,1.9 12.6,5.2 3.4,3.4 5.2,7.9 5.2,12.6 0.1,1.4 -1,2.4 -2.2,2.4 z M 95,86.9 87,95 64.6,72.6 67,70.2 60.2,63.4 c -4.2,3.6 -9,6.1 -14.1,7.3 -10.9,2.6 -22.9,-0.2 -31.4,-8.8 -13,-13 -13,-34.2 0,-47.2 2.6,-2.6 5.5,-4.5 8.6,-6 8.6,-4.3 18.5,-4.9 27.4,-1.4 4.1,1.6 8,4.1 11.3,7.4 12.5,12.5 12.9,32.3 1.4,45.4 l 6.8,6.8 2.4,-2.4 L 95,86.9 Z M 57.2,19.6 c -5,-5 -11.7,-7.8 -18.8,-7.8 -7.1,0 -13.7,2.7 -18.8,7.8 -5,5 -7.8,11.7 -7.8,18.8 0,7.1 2.8,13.8 7.8,18.8 5,5 11.7,7.8 18.8,7.8 7.1,0 13.8,-2.7 18.8,-7.8 10.3,-10.5 10.3,-27.3 0,-37.6 z"
         id="path3520" />
      <text
         style="font-size:5px;font-family:Arial-BoldMT;display:none;enable-background:new"
         transform="translate(0,115)"
         class="st0 st1 st2"
         id="text3522">Created by Mani Amini</text>
      <text
         style="font-size:5px;font-family:Arial-BoldMT;display:none;enable-background:new"
         transform="translate(0,120)"
         class="st0 st1 st2"
         id="text3524">from the Noun Project</text>
    </g>
  </g>
  <style
     type="text/css"
     id="style3518">
	.st0{display:none;enable-background:new    ;}
	.st1{font-family:'Arial-BoldMT';}
	.st2{font-size:5px;}
</style>
</svg>
