<?xml version="1.0" encoding="UTF-8" standalone="no"?>
<svg
   xmlns:dc="http://purl.org/dc/elements/1.1/"
   xmlns:cc="http://creativecommons.org/ns#"
   xmlns:rdf="http://www.w3.org/1999/02/22-rdf-syntax-ns#"
   xmlns:svg="http://www.w3.org/2000/svg"
   xmlns="http://www.w3.org/2000/svg"
   version="1.1"
   id="svg3538"
   viewBox="0 0 46.000001 45.005017"
   height="12.701416mm"
   width="12.982223mm">
  <defs
     id="defs3540" />
  <metadata
     id="metadata3543">
    <rdf:RDF>
      <cc:Work
         rdf:about="">
        <dc:format>image/svg+xml</dc:format>
        <dc:type
           rdf:resource="http://purl.org/dc/dcmitype/StillImage" />
        <dc:title></dc:title>
      </cc:Work>
    </rdf:RDF>
  </metadata>
  <g
     transform="translate(-154.14286,-301.28827)"
     id="layer1">
    <path
       style="clip-rule:evenodd;fill-rule:evenodd"
       d="m 198.17986,327.71929 c 0.592,0.697 0.963,1.589 0.963,2.575 0,1.461 -0.792,2.727 -1.963,3.424 0.592,0.698 0.963,1.59 0.963,2.576 0,1.462 -0.793,2.726 -1.963,3.424 0.592,0.697 0.963,1.589 0.963,2.575 0,2.209 -1.791,4 -4,4 l -23.404,-0.002 0,-0.024 c -1.602,-0.069 -3.018,-0.824 -3.975,-1.976 l -6.621,0 c -2.762,0 -5,-5.373 -5,-12 0,-6.627 2.238,-12 5,-12 l 8.387,0 7.613,-10.998 0,-5 c 0.541,-3.262 3,-3 3,-3 2.212,0 3,1 3,1 3,3 3,8 3,8 0,6.608 -3,10 -3,10 l 15,0 c 2.209,0 4,1.791 4,4 0,1.462 -0.793,2.728 -1.963,3.426 z m -39.037,-5.428 c -0.771,0 -3,3.438 -3,10 0,6.562 2.229,10 3,10 l 5.578,0 c -0.056,-0.198 -0.119,-0.393 -0.152,-0.6 -0.592,-2.872 -1.426,-7.593 -1.426,-11.4 0,-4.043 2.203,-6.897 3,-8 l 0.002,0 0,0 -7.002,0 z m 37,0.002 -19.439,0 2.941,-3.325 c 0.025,-0.029 2.498,-2.984 2.498,-8.669 0,-0.042 -0.054,-4.232 -2.414,-6.591 l -0.117,-0.105 c -0.673,-0.423 -1.599,-0.314 -1.599,-0.314 -0.533,0 -0.77,0.686 -0.87,1.185 l 0,5.444 -9.379,13.543 -0.109,0.152 c -0.816,1.121 -2.512,3.453 -2.512,6.678 0,3.714 0.867,8.484 1.398,11.073 0.268,1.611 1.648,2.833 3.285,2.904 l 23.317,0.025 c 1.103,0 2,-0.897 2,-2 0,-0.584 -0.266,-1.019 -0.487,-1.281 l -1.529,-1.801 2.028,-1.211 c 0.619,-0.369 0.988,-1.007 0.988,-1.706 0,-0.584 -0.266,-1.021 -0.488,-1.283 l -1.528,-1.803 2.03,-1.209 c 0.617,-0.367 0.986,-1.005 0.986,-1.705 0,-0.584 -0.266,-1.019 -0.487,-1.281 l -1.529,-1.801 2.028,-1.211 c 0.619,-0.369 0.988,-1.007 0.988,-1.707 0,-1.104 -0.897,-2.001 -2,-2.001 z m -35.5,17.998 c -0.828,0 -1.5,-0.672 -1.5,-1.5 0,-0.828 0.672,-1.5 1.5,-1.5 0.828,0 1.5,0.672 1.5,1.5 0,0.828 -0.672,1.5 -1.5,1.5 z"
       id="path3548" />
  </g>
</svg>
